<?xml version="1.0" encoding="UTF-8" standalone="no"?>
<!-- Created with Inkscape (http://www.inkscape.org/) -->

<svg
   width="85.856842mm"
   height="86.542969mm"
   viewBox="0 0 85.856842 86.542969"
   version="1.1"
   id="svg17569"
   inkscape:version="1.1 (1:1.1+202106031931+af4d65493e)"
   sodipodi:docname="icon_l.svg"
   xmlns:inkscape="http://www.inkscape.org/namespaces/inkscape"
   xmlns:sodipodi="http://sodipodi.sourceforge.net/DTD/sodipodi-0.dtd"
   xmlns="http://www.w3.org/2000/svg"
   xmlns:svg="http://www.w3.org/2000/svg">
  <sodipodi:namedview
     id="namedview17571"
     pagecolor="#ffffff"
     bordercolor="#666666"
     borderopacity="1.0"
     inkscape:pageshadow="2"
     inkscape:pageopacity="0.0"
     inkscape:pagecheckerboard="0"
     inkscape:document-units="mm"
     showgrid="false"
     fit-margin-top="0"
     fit-margin-left="0"
     fit-margin-right="0"
     fit-margin-bottom="0"
     inkscape:zoom="0.45291836"
     inkscape:cx="160.073"
     inkscape:cy="101.56356"
     inkscape:window-width="1920"
     inkscape:window-height="1031"
     inkscape:window-x="0"
     inkscape:window-y="0"
     inkscape:window-maximized="1"
     inkscape:current-layer="layer1" />
  <defs
     id="defs17566" />
  <g
     inkscape:label="Слой 1"
     inkscape:groupmode="layer"
     id="layer1"
     transform="translate(-21.098006,-91.39055)">
    <g
       id="g17442"
       inkscape:export-filename="/home/boris/workspace/qgis/dev/plan_creator/icon_l.png"
       inkscape:export-xdpi="96"
       inkscape:export-ydpi="96"
       transform="matrix(12.483794,0,0,12.483794,40.014129,2.803404)">
      <g
         id="g18963-6-4"
         transform="matrix(1.0193054,0,0,1.0243502,-29.645262,5.7786205)"
         inkscape:export-filename="/home/boris/workspace/qgis/dev/plan_creator/icon_j.png"
         inkscape:export-xdpi="96"
         inkscape:export-ydpi="96">
        <g
           id="g15933-9-5"
           inkscape:export-filename="/home/boris/workspace/qgis/dev/plan_creator/icon_b.png"
           inkscape:export-xdpi="96"
           inkscape:export-ydpi="96"
           transform="matrix(0.98106025,0,0,0.97622865,12.651719,-5.6412549)">
          <path
             style="fill:#f85af4;fill-opacity:1;stroke:#000000;stroke-width:0.1;stroke-linecap:round;stroke-linejoin:round;stroke-miterlimit:4;stroke-dasharray:none"
             d="M 15.284042,8.816789 V 7.1503274 h 1.287939 1.287938 v 1.6664616 1.66646 h -1.287938 -1.287939 z"
             id="path1100-4-0" />
          <path
             style="fill:#2888e8;fill-opacity:1;stroke:#000000;stroke-width:0.1;stroke-linecap:round;stroke-linejoin:round;stroke-miterlimit:4;stroke-dasharray:none"
             d="M 18.927322,8.7942604 V 7.1461717 h 1.224405 1.224405 v 1.6480887 1.6480876 h -1.224405 -1.224405 z"
             id="path2360-7-3" />
          <rect
             style="fill:#0bfa45;fill-opacity:1;stroke:#000000;stroke-width:0.1;stroke-linecap:round;stroke-linejoin:round;stroke-miterlimit:4;stroke-dasharray:none;stroke-opacity:1"
             id="rect8711-8-6"
             height="1.1417701"
             x="17.646051"
             y="8.1613741"
             width="1.5160595" />
        </g>
      </g>
      <g
         id="g16764"
         transform="matrix(1.5440574,0,0,1.5440574,-3.14746,-7.2777309)">
        <g
           id="g16776">
          <path
             d="M 3.4028693,11.811617 V 11.521125 H 3.211219 v 0.290687 H 2.893532 v 0.202008 h 0.317687 v 0.298017 H 3.4030642 V 12.01382 h 0.3201231 v -0.202203 z"
             id="path10248-1"
             sodipodi:nodetypes="ccccccccccccc"
             inkscape:export-filename="/home/boris/workspace/qgis/dev/plan_creator/icon_l.png"
             inkscape:export-xdpi="96"
             inkscape:export-ydpi="96"
             style="stroke-width:0.00194936" />
          <g
             transform="matrix(2.6998296e-4,0,0,-2.6998296e-4,2.8384069,12.914944)"
             id="g11998"
             inkscape:export-filename="/home/boris/workspace/qgis/dev/plan_creator/icon_l.png"
             inkscape:export-xdpi="96"
             inkscape:export-ydpi="96">
            <path
               d="M 2726.4,2457 C 1452.1,1883.5 371.9,1394 324.4,1372.4 L 242.5,1333.6 2653.1,303 c 2255.4,-966 2417.1,-1030.7 2477.4,-1007 114.3,43.1 4773.8,2037.6 4769.5,2041.9 -21.6,19.4 -4780.2,2151.9 -4812.6,2156.2 -23.7,4.3 -1080.2,-459.3 -2361,-1037.1 z m 3935,-392.5 c 860.3,-386 1556.8,-711.5 1548.1,-720.2 -8.6,-8.6 -718,-317 -1576.2,-685.7 L 5072.3,-9.7 3507,660.9 c -862.5,368.7 -1574,677 -1582.6,683.5 -15.1,12.9 3100.6,1425.2 3148,1425.2 12.9,0 728.7,-316.9 1589,-705.1 z"
               id="path11994" />
            <path
               d="M 2532.4,-104.6 C 1488.8,-563.8 80.8,-1210.7 100.2,-1221.5 115.3,-1228 1202,-1693.7 2517.3,-2254.3 l 2386.9,-1019.9 1505,642.5 c 825.8,353.7 1912.5,817.3 2414.9,1030.7 500.2,213.5 907.8,390.3 905.6,392.4 -38.8,30.2 -2376.1,1073.8 -2445.1,1091 -84.1,21.6 -105.7,19.4 -196.2,-25.9 -135.8,-66.9 -213.4,-209.2 -189.7,-345 28,-161.7 92.7,-207 655.5,-463.6 286.8,-127.2 511,-239.3 502.4,-248 -8.6,-6.5 -88.4,-43.1 -176.8,-79.8 -88.4,-36.7 -795.6,-336.4 -1569.7,-668.4 l -1408,-603.7 -1556.8,668.4 c -856,366.5 -1565.4,674.9 -1574,683.5 -8.6,8.6 237.2,131.5 549.8,269.5 312.6,140.2 588.6,267.4 616.7,284.6 133.7,86.3 176.8,312.6 86.3,457.1 -47.4,77.6 -183.3,153.1 -276,155.2 -30.3,0.3 -127.3,-32.1 -215.7,-70.9 z"
               id="path11996" />
          </g>
        </g>
      </g>
    </g>
  </g>
</svg>
